<svg xmlns="http://www.w3.org/2000/svg" width="872" height="930" viewBox="0 0 872 930">
<defs><linearGradient id="sheet-option-01-bg" x1="14.644660940672622%" y1="14.644660940672622%" x2="85.35533905932738%" y2="85.35533905932738%"><stop offset="0" stop-color="#0f766e"/><stop offset="1" stop-color="#f59e0b"/></linearGradient><linearGradient id="sheet-option-02-bg" x1="9.042397785550406%" y1="21.321178182447696%" x2="90.9576022144496%" y2="78.6788218175523%"><stop offset="0" stop-color="#14532d"/><stop offset="1" stop-color="#a3e635"/></linearGradient><linearGradient id="sheet-option-03-bg" x1="21.321178182447696%" y1="9.042397785550406%" x2="78.6788218175523%" y2="90.9576022144496%"><stop offset="0" stop-color="#be123c"/><stop offset="1" stop-color="#fb7185"/></linearGradient><radialGradient id="sheet-option-04-bg" cx="42%" cy="32%" r="78%"><stop offset="0" stop-color="#111827"/><stop offset="1" stop-color="#2563eb"/></radialGradient><linearGradient id="sheet-option-06-bg" x1="11.697777844051103%" y1="17.860619515673037%" x2="88.3022221559489%" y2="82.13938048432696%"><stop offset="0" stop-color="#0891b2"/><stop offset="1" stop-color="#34d399"/></linearGradient><linearGradient id="sheet-option-06-fg" x1="0" y1="0" x2="1" y2="1"><stop offset="0" stop-color="#ffffff"/><stop offset="1" stop-color="#e0f2fe"/></linearGradient><linearGradient id="sheet-option-07-bg" x1="14.644660940672622%" y1="14.644660940672622%" x2="85.35533905932738%" y2="85.35533905932738%"><stop offset="0" stop-color="#111827"/><stop offset="1" stop-color="#0f766e"/></linearGradient><linearGradient id="sheet-option-07-fg" x1="0" y1="0" x2="1" y2="1"><stop offset="0" stop-color="#fbbf24"/><stop offset="1" stop-color="#ffffff"/></linearGradient><linearGradient id="sheet-option-08-bg" x1="17.860619515673022%" y1="11.697777844051103%" x2="82.13938048432698%" y2="88.3022221559489%"><stop offset="0" stop-color="#7c2d12"/><stop offset="1" stop-color="#f97316"/></linearGradient></defs>
<rect width="872" height="930" fill="#f5f7fb"/>
<text x="34" y="42" font-family="Inter, Arial, sans-serif" font-size="24" font-weight="850" fill="#111827">乔木App评价洞察 icon options</text>
<text x="34" y="68" font-family="Inter, Arial, sans-serif" font-size="14" fill="#64748b">Generated by QM Icon Studio CLI · 8 choices · source SVG 1024x1024</text>
<g transform="translate(34 92)">
  <rect width="252" height="252" rx="18" fill="#ffffff" stroke="#d8deea"/>
  <rect x="50" y="28" width="152" height="152" rx="20" fill="#f8fafc" stroke="#e2e8f0"/>
  <g transform="translate(50 28) scale(0.1484375)"><rect width="1024" height="1024" fill="url(#sheet-option-01-bg)"/><g filter="drop-shadow(0 25.6px 35.84px rgba(15,23,42,0.16))"><path transform="translate(512 512) rotate(0) scale(22.939021510283155) translate(-12 -12)" d="M12 17.27L18.18 21l-1.64-7.03L22 9.24l-7.19-.61L12 2 9.19 8.63 2 9.24l5.46 4.73L5.82 21z" fill="#ffffff"/></g></g>
  <text x="24" y="210" font-family="Inter, Arial, sans-serif" font-size="17" font-weight="800" fill="#111827">Option 01</text>
  <text x="24" y="233" font-family="Inter, Arial, sans-serif" font-size="12" fill="#64748b">icon: star · signal</text>
</g>
<g transform="translate(310 92)">
  <rect width="252" height="252" rx="18" fill="#ffffff" stroke="#d8deea"/>
  <rect x="50" y="28" width="152" height="152" rx="20" fill="#f8fafc" stroke="#e2e8f0"/>
  <g transform="translate(50 28) scale(0.1484375)"><rect width="1024" height="1024" fill="url(#sheet-option-02-bg)"/><path d="M0 0h1024v389.12C737.28 491.52 286.72 122.88 0 327.68z" fill="#ffffff" opacity="0.14"/><g filter="drop-shadow(0 25.6px 35.84px rgba(15,23,42,0.20))"><path transform="translate(512 512) rotate(0) scale(24.030853663146498) translate(-12 -12)" d="M12 2c3 2 5 6 5 10l2.5 3-3 .5c-.5 1.5-1 2.5-1.5 3l-3-2-3 2c-.5-.5-1-1.5-1.5-3l-3-.5L7 12c0-4 2-8 5-10zm0 6.5A1.75 1.75 0 1012 12a1.75 1.75 0 000-3.5z" fill="#f8fafc" fill-rule="evenodd"/></g></g>
  <text x="24" y="210" font-family="Inter, Arial, sans-serif" font-size="17" font-weight="800" fill="#111827">Option 02</text>
  <text x="24" y="233" font-family="Inter, Arial, sans-serif" font-size="12" fill="#64748b">icon: rocket · meadow</text>
</g>
<g transform="translate(586 92)">
  <rect width="252" height="252" rx="18" fill="#ffffff" stroke="#d8deea"/>
  <rect x="50" y="28" width="152" height="152" rx="20" fill="#f8fafc" stroke="#e2e8f0"/>
  <g transform="translate(50 28) scale(0.1484375)"><rect width="1024" height="1024" fill="url(#sheet-option-03-bg)"/><g filter="drop-shadow(0 25.6px 35.84px rgba(15,23,42,0.24))"><path transform="translate(512 512) rotate(0) scale(25.62333988275131) translate(-12 -12)" d="M12 8a4 4 0 100 8 4 4 0 000-8zm8.94 3A8.994 8.994 0 0013 3.06V1h-2v2.06A8.994 8.994 0 003.06 11H1v2h2.06A8.994 8.994 0 0011 20.94V23h2v-2.06A8.994 8.994 0 0020.94 13H23v-2h-2.06zM12 19c-3.87 0-7-3.13-7-7s3.13-7 7-7 7 3.13 7 7-3.13 7-7 7z" fill="#fff7ed"/></g></g>
  <text x="24" y="210" font-family="Inter, Arial, sans-serif" font-size="17" font-weight="800" fill="#111827">Option 03</text>
  <text x="24" y="233" font-family="Inter, Arial, sans-serif" font-size="12" fill="#64748b">icon: target · coral</text>
</g>
<g transform="translate(34 368)">
  <rect width="252" height="252" rx="18" fill="#ffffff" stroke="#d8deea"/>
  <rect x="50" y="28" width="152" height="152" rx="20" fill="#f8fafc" stroke="#e2e8f0"/>
  <g transform="translate(50 28) scale(0.1484375)"><rect width="1024" height="1024" fill="url(#sheet-option-04-bg)"/><g filter="drop-shadow(0 25.6px 35.84px rgba(15,23,42,0.16))"><path transform="translate(512 512) rotate(-4) scale(27.037813424150148) translate(-12 -12)" d="M11.99 2C6.47 2 2 6.48 2 12s4.47 10 9.99 10C17.52 22 22 17.52 22 12S17.52 2 11.99 2zM12 20c-4.42 0-8-3.58-8-8s3.58-8 8-8 8 3.58 8 8-3.58 8-8 8zm3.5-9c.83 0 1.5-.67 1.5-1.5S16.33 8 15.5 8 14 8.67 14 9.5s.67 1.5 1.5 1.5zm-7 0c.83 0 1.5-.67 1.5-1.5S9.33 8 8.5 8 7 8.67 7 9.5 7.67 11 8.5 11zm3.5 6.5c2.33 0 4.31-1.46 5.11-3.5H6.89c.8 2.04 2.78 3.5 5.11 3.5z" fill="#f8fafc"/></g></g>
  <text x="24" y="210" font-family="Inter, Arial, sans-serif" font-size="17" font-weight="800" fill="#111827">Option 04</text>
  <text x="24" y="233" font-family="Inter, Arial, sans-serif" font-size="12" fill="#64748b">icon: smile · cobalt</text>
</g>
<g transform="translate(310 368)">
  <rect width="252" height="252" rx="18" fill="#ffffff" stroke="#d8deea"/>
  <rect x="50" y="28" width="152" height="152" rx="20" fill="#f8fafc" stroke="#e2e8f0"/>
  <g transform="translate(50 28) scale(0.1484375)"><rect width="1024" height="1024" fill="#f8fafc"/><rect x="35.84" y="35.84" width="952.32" height="952.32" rx="56.32" fill="none" stroke="#ffffff" stroke-opacity="0.28" stroke-width="12.288"/><path d="M0 0h1024v389.12C737.28 491.52 286.72 122.88 0 327.68z" fill="#ffffff" opacity="0.14"/><g filter="drop-shadow(0 25.6px 35.84px rgba(15,23,42,0.20))"><path transform="translate(512 512) rotate(4) scale(22.311974531392256) translate(-12 -12)" d="M12 17.27L18.18 21l-1.64-7.03L22 9.24l-7.19-.61L12 2 9.19 8.63 2 9.24l5.46 4.73L5.82 21z" fill="#111827"/></g></g>
  <text x="24" y="210" font-family="Inter, Arial, sans-serif" font-size="17" font-weight="800" fill="#111827">Option 05</text>
  <text x="24" y="233" font-family="Inter, Arial, sans-serif" font-size="12" fill="#64748b">icon: star · steel</text>
</g>
<g transform="translate(586 368)">
  <rect width="252" height="252" rx="18" fill="#ffffff" stroke="#d8deea"/>
  <rect x="50" y="28" width="152" height="152" rx="20" fill="#f8fafc" stroke="#e2e8f0"/>
  <g transform="translate(50 28) scale(0.1484375)"><rect width="1024" height="1024" fill="url(#sheet-option-06-bg)"/><g filter="drop-shadow(0 25.6px 35.84px rgba(15,23,42,0.24))"><path transform="translate(512 512) rotate(0) scale(23.917371609687805) translate(-12 -12)" d="M12 2c3 2 5 6 5 10l2.5 3-3 .5c-.5 1.5-1 2.5-1.5 3l-3-2-3 2c-.5-.5-1-1.5-1.5-3l-3-.5L7 12c0-4 2-8 5-10zm0 6.5A1.75 1.75 0 1012 12a1.75 1.75 0 000-3.5z" fill="url(#sheet-option-06-fg)" fill-rule="evenodd"/></g></g>
  <text x="24" y="210" font-family="Inter, Arial, sans-serif" font-size="17" font-weight="800" fill="#111827">Option 06</text>
  <text x="24" y="233" font-family="Inter, Arial, sans-serif" font-size="12" fill="#64748b">icon: rocket · glass</text>
</g>
<g transform="translate(34 644)">
  <rect width="252" height="252" rx="18" fill="#ffffff" stroke="#d8deea"/>
  <rect x="50" y="28" width="152" height="152" rx="20" fill="#f8fafc" stroke="#e2e8f0"/>
  <g transform="translate(50 28) scale(0.1484375)"><rect width="1024" height="1024" fill="url(#sheet-option-07-bg)"/><g filter="drop-shadow(0 25.6px 35.84px rgba(15,23,42,0.16))"><path transform="translate(512 512) rotate(0) scale(25.598170848210657) translate(-12 -12)" d="M12 8a4 4 0 100 8 4 4 0 000-8zm8.94 3A8.994 8.994 0 0013 3.06V1h-2v2.06A8.994 8.994 0 003.06 11H1v2h2.06A8.994 8.994 0 0011 20.94V23h2v-2.06A8.994 8.994 0 0020.94 13H23v-2h-2.06zM12 19c-3.87 0-7-3.13-7-7s3.13-7 7-7 7 3.13 7 7-3.13 7-7 7z" fill="url(#sheet-option-07-fg)"/></g></g>
  <text x="24" y="210" font-family="Inter, Arial, sans-serif" font-size="17" font-weight="800" fill="#111827">Option 07</text>
  <text x="24" y="233" font-family="Inter, Arial, sans-serif" font-size="12" fill="#64748b">icon: target · midnight</text>
</g>
<g transform="translate(310 644)">
  <rect width="252" height="252" rx="18" fill="#ffffff" stroke="#d8deea"/>
  <rect x="50" y="28" width="152" height="152" rx="20" fill="#f8fafc" stroke="#e2e8f0"/>
  <g transform="translate(50 28) scale(0.1484375)"><rect width="1024" height="1024" fill="url(#sheet-option-08-bg)"/><path d="M0 0h1024v389.12C737.28 491.52 286.72 122.88 0 327.68z" fill="#ffffff" opacity="0.14"/><g filter="drop-shadow(0 25.6px 35.84px rgba(15,23,42,0.20))"><path transform="translate(512 512) rotate(0) scale(27.108043165127437) translate(-12 -12)" d="M11.99 2C6.47 2 2 6.48 2 12s4.47 10 9.99 10C17.52 22 22 17.52 22 12S17.52 2 11.99 2zM12 20c-4.42 0-8-3.58-8-8s3.58-8 8-8 8 3.58 8 8-3.58 8-8 8zm3.5-9c.83 0 1.5-.67 1.5-1.5S16.33 8 15.5 8 14 8.67 14 9.5s.67 1.5 1.5 1.5zm-7 0c.83 0 1.5-.67 1.5-1.5S9.33 8 8.5 8 7 8.67 7 9.5 7.67 11 8.5 11zm3.5 6.5c2.33 0 4.31-1.46 5.11-3.5H6.89c.8 2.04 2.78 3.5 5.11 3.5z" fill="#fff7ed"/></g></g>
  <text x="24" y="210" font-family="Inter, Arial, sans-serif" font-size="17" font-weight="800" fill="#111827">Option 08</text>
  <text x="24" y="233" font-family="Inter, Arial, sans-serif" font-size="12" fill="#64748b">icon: smile · ember</text>
</g>
</svg>
