<svg xmlns="http://www.w3.org/2000/svg" width="1024" height="1024" viewBox="0 0 1024 1024" role="img" aria-label="Option 02"><defs><linearGradient id="option-02-bg" x1="9.042397785550406%" y1="21.321178182447696%" x2="90.9576022144496%" y2="78.6788218175523%"><stop offset="0" stop-color="#14532d"/><stop offset="1" stop-color="#a3e635"/></linearGradient></defs><rect width="1024" height="1024" fill="url(#option-02-bg)"/><path d="M0 0h1024v389.12C737.28 491.52 286.72 122.88 0 327.68z" fill="#ffffff" opacity="0.14"/><g filter="drop-shadow(0 25.6px 35.84px rgba(15,23,42,0.20))"><path transform="translate(512 512) rotate(0) scale(24.030853663146498) translate(-12 -12)" d="M12 2c3 2 5 6 5 10l2.5 3-3 .5c-.5 1.5-1 2.5-1.5 3l-3-2-3 2c-.5-.5-1-1.5-1.5-3l-3-.5L7 12c0-4 2-8 5-10zm0 6.5A1.75 1.75 0 1012 12a1.75 1.75 0 000-3.5z" fill="#f8fafc" fill-rule="evenodd"/></g></svg>
