<svg xmlns="http://www.w3.org/2000/svg" width="1024" height="1024" viewBox="0 0 1024 1024" role="img" aria-label="Option 04"><defs><radialGradient id="option-04-bg" cx="42%" cy="32%" r="78%"><stop offset="0" stop-color="#111827"/><stop offset="1" stop-color="#2563eb"/></radialGradient></defs><rect width="1024" height="1024" fill="url(#option-04-bg)"/><g filter="drop-shadow(0 25.6px 35.84px rgba(15,23,42,0.16))"><path transform="translate(512 512) rotate(-4) scale(27.037813424150148) translate(-12 -12)" d="M11.99 2C6.47 2 2 6.48 2 12s4.47 10 9.99 10C17.52 22 22 17.52 22 12S17.52 2 11.99 2zM12 20c-4.42 0-8-3.58-8-8s3.58-8 8-8 8 3.58 8 8-3.58 8-8 8zm3.5-9c.83 0 1.5-.67 1.5-1.5S16.33 8 15.5 8 14 8.67 14 9.5s.67 1.5 1.5 1.5zm-7 0c.83 0 1.5-.67 1.5-1.5S9.33 8 8.5 8 7 8.67 7 9.5 7.67 11 8.5 11zm3.5 6.5c2.33 0 4.31-1.46 5.11-3.5H6.89c.8 2.04 2.78 3.5 5.11 3.5z" fill="#f8fafc"/></g></svg>
