<svg xmlns="http://www.w3.org/2000/svg" width="1024" height="1024" viewBox="0 0 1024 1024" role="img" aria-label="Option 07"><defs><linearGradient id="option-07-bg" x1="14.644660940672622%" y1="14.644660940672622%" x2="85.35533905932738%" y2="85.35533905932738%"><stop offset="0" stop-color="#111827"/><stop offset="1" stop-color="#0f766e"/></linearGradient><linearGradient id="option-07-fg" x1="0" y1="0" x2="1" y2="1"><stop offset="0" stop-color="#fbbf24"/><stop offset="1" stop-color="#ffffff"/></linearGradient></defs><rect width="1024" height="1024" fill="url(#option-07-bg)"/><g filter="drop-shadow(0 25.6px 35.84px rgba(15,23,42,0.16))"><path transform="translate(512 512) rotate(0) scale(25.598170848210657) translate(-12 -12)" d="M12 8a4 4 0 100 8 4 4 0 000-8zm8.94 3A8.994 8.994 0 0013 3.06V1h-2v2.06A8.994 8.994 0 003.06 11H1v2h2.06A8.994 8.994 0 0011 20.94V23h2v-2.06A8.994 8.994 0 0020.94 13H23v-2h-2.06zM12 19c-3.87 0-7-3.13-7-7s3.13-7 7-7 7 3.13 7 7-3.13 7-7 7z" fill="url(#option-07-fg)"/></g></svg>
