<svg xmlns="http://www.w3.org/2000/svg" width="1024" height="1024" viewBox="0 0 1024 1024" role="img" aria-label="Option 03"><defs><linearGradient id="option-03-bg" x1="21.321178182447696%" y1="9.042397785550406%" x2="78.6788218175523%" y2="90.9576022144496%"><stop offset="0" stop-color="#be123c"/><stop offset="1" stop-color="#fb7185"/></linearGradient></defs><rect width="1024" height="1024" fill="url(#option-03-bg)"/><g filter="drop-shadow(0 25.6px 35.84px rgba(15,23,42,0.24))"><path transform="translate(512 512) rotate(0) scale(25.62333988275131) translate(-12 -12)" d="M12 8a4 4 0 100 8 4 4 0 000-8zm8.94 3A8.994 8.994 0 0013 3.06V1h-2v2.06A8.994 8.994 0 003.06 11H1v2h2.06A8.994 8.994 0 0011 20.94V23h2v-2.06A8.994 8.994 0 0020.94 13H23v-2h-2.06zM12 19c-3.87 0-7-3.13-7-7s3.13-7 7-7 7 3.13 7 7-3.13 7-7 7z" fill="#fff7ed"/></g></svg>
