<svg xmlns="http://www.w3.org/2000/svg" width="1024" height="1024" viewBox="0 0 1024 1024" role="img" aria-label="Option 06"><defs><linearGradient id="option-06-bg" x1="11.697777844051103%" y1="17.860619515673037%" x2="88.3022221559489%" y2="82.13938048432696%"><stop offset="0" stop-color="#0891b2"/><stop offset="1" stop-color="#34d399"/></linearGradient><linearGradient id="option-06-fg" x1="0" y1="0" x2="1" y2="1"><stop offset="0" stop-color="#ffffff"/><stop offset="1" stop-color="#e0f2fe"/></linearGradient></defs><rect width="1024" height="1024" fill="url(#option-06-bg)"/><g filter="drop-shadow(0 25.6px 35.84px rgba(15,23,42,0.24))"><path transform="translate(512 512) rotate(0) scale(23.917371609687805) translate(-12 -12)" d="M12 2c3 2 5 6 5 10l2.5 3-3 .5c-.5 1.5-1 2.5-1.5 3l-3-2-3 2c-.5-.5-1-1.5-1.5-3l-3-.5L7 12c0-4 2-8 5-10zm0 6.5A1.75 1.75 0 1012 12a1.75 1.75 0 000-3.5z" fill="url(#option-06-fg)" fill-rule="evenodd"/></g></svg>
